<svg width="498" height="803" viewBox="0 0 498 803" fill="none" xmlns="http://www.w3.org/2000/svg">
<g clip-path="url(#clip0_1_20)">
<mask id="mask0_1_20" style="mask-type:alpha" maskUnits="userSpaceOnUse" x="0" y="-79" width="493" height="882">
<path d="M493 -79H0V803H493V-79Z" fill="#D9D9D9"/>
</mask>
<g mask="url(#mask0_1_20)">
<path fill-rule="evenodd" clip-rule="evenodd" d="M152.062 -259V-190.446L114 -190.446V-189.219L152.062 -189.219V-100.066H114V-98.8385H152.062V-9.68474H114V-8.45765H152.062V80.6953H114V81.9224H152.062V171.075H114V172.302H152.062V261.457H114V262.684H152.062V351.837H114V353.064H152.062V442.217H114V443.444H152.062V512H152.772V443.444H204.345V512H205.055V443.444H256.625V512H257.334V443.444H308.904V512H309.614V443.444H361.19V512H361.9V443.444H413.476V512H414.186V443.444H465.755V512H466.465V443.444H518.035V512H518.745V443.444H560V442.217H518.745V353.064H560V351.837H518.745V262.684H560V261.457H518.745V172.302H560V171.075H518.745V81.9224H560V80.6953H518.745V-8.45765H560V-9.68474H518.745V-98.8385H560V-100.066H518.745V-189.219H560V-190.446L518.745 -190.446V-259H518.035V-190.446H466.465V-259H465.755V-190.446L414.186 -190.446V-259H413.476V-190.446L361.9 -190.446V-259H361.19V-190.446L309.614 -190.446V-259H308.904V-190.446L257.334 -190.446V-259H256.625V-190.446L205.055 -190.446V-259H204.345V-190.446H152.772V-259H152.062ZM518.035 442.217V353.064H466.465V442.217H518.035ZM465.755 442.217V353.064H414.186V442.217H465.755ZM413.476 442.217V353.064H361.9V442.217H413.476ZM361.19 442.217V353.064H309.614V442.217H361.19ZM308.904 442.217V353.064H257.334V442.217H308.904ZM256.625 442.217V353.064H205.055V442.217H256.625ZM204.345 442.217V353.064H152.772V442.217H204.345ZM204.345 351.837H152.772V262.684H204.345V351.837ZM256.625 351.837H205.055V262.684H256.625V351.837ZM308.904 351.837H257.334V262.684H308.904V351.837ZM361.19 351.837H309.614V262.684H361.19V351.837ZM413.476 351.837H361.9V262.684H413.476V351.837ZM465.755 351.837H414.186V262.684H465.755V351.837ZM518.035 351.837H466.465V262.684H518.035V351.837ZM518.035 261.457V172.302H466.465V261.457H518.035ZM465.755 261.457V172.302H414.186V261.457H465.755ZM413.476 261.457V172.302H361.9V261.457H413.476ZM361.19 261.457V172.302H309.614V261.457H361.19ZM308.904 261.457V172.302H257.334V261.457H308.904ZM256.625 261.457V172.302H205.055V261.457H256.625ZM204.345 261.457V172.302H152.772V261.457H204.345ZM204.345 171.075H152.772V81.9224H204.345V171.075ZM256.625 171.075H205.055V81.9224H256.625V171.075ZM308.904 171.075H257.334V81.9224H308.904V171.075ZM361.19 171.075H309.614V81.9224H361.19V171.075ZM413.476 171.075H361.9V81.9224H413.476V171.075ZM465.755 171.075H414.186V81.9224H465.755V171.075ZM518.035 171.075H466.465V81.9224H518.035V171.075ZM518.035 80.6953V-8.45765H466.465V80.6953H518.035ZM465.755 80.6953V-8.45765H414.186V80.6953H465.755ZM413.476 80.6953V-8.45765H361.9V80.6953H413.476ZM361.19 80.6953V-8.45765H309.614V80.6953H361.19ZM308.904 80.6953V-8.45765H257.334V80.6953H308.904ZM256.625 80.6953V-8.45765H205.055V80.6953H256.625ZM204.345 80.6953V-8.45765H152.772V80.6953H204.345ZM204.345 -9.68474H152.772V-98.8385H204.345V-9.68474ZM256.625 -9.68474H205.055V-98.8385H256.625V-9.68474ZM308.904 -9.68474H257.334V-98.8385H308.904V-9.68474ZM361.19 -9.68474H309.614V-98.8385H361.19V-9.68474ZM413.476 -9.68474H361.9V-98.8385H413.476V-9.68474ZM465.755 -9.68474H414.186V-98.8385H465.755V-9.68474ZM518.035 -9.68474H466.465V-98.8385H518.035V-9.68474ZM518.035 -100.066V-189.219H466.465V-100.066H518.035ZM465.755 -100.066V-189.219L414.186 -189.219V-100.066H465.755ZM413.476 -100.066V-189.219H361.9V-100.066H413.476ZM361.19 -100.066V-189.219L309.614 -189.219V-100.066H361.19ZM308.904 -100.066V-189.219H257.334V-100.066H308.904ZM256.625 -100.066V-189.219H205.055V-100.066H256.625ZM204.345 -100.066V-189.219H152.772V-100.066H204.345Z" fill="url(#paint0_radial_1_20)"/>
<path fill-rule="evenodd" clip-rule="evenodd" d="M-12.2553 175V244.354H-51V245.595H-12.2553V335.789H-51V337.031H-12.2553V427.225H-51V428.467H-12.2553V518.661H-51V519.902H-12.2553V610.096H-51V611.337H-12.2553V701.532H-51V702.773H-12.2553V792.967H-51V794.208H-12.2553V884.402H-51V885.643H-12.2553V955H-11.5328V885.643H40.9659V955H41.6885V885.643H94.1814V955H94.904V885.643H147.403V955H148.126V885.643H200.625V955H201.347V885.643H253.846V955H254.568V885.643H307.062V955H307.785V885.643H360.282V955H361.005V885.643H403V884.402H361.005V794.208H403V792.967H361.005V702.773H403V701.532H361.005V611.337H403V610.096H361.005V519.902H403V518.661H361.005V428.467H403V427.225H361.005V337.031H403V335.789H361.005V245.595H403V244.354H361.005V175H360.282V244.354H307.785V175H307.062V244.354H254.568V175H253.846V244.354H201.347V175H200.625V244.354H148.126V175H147.403V244.354H94.904V175H94.1814V244.354H41.6885V175H40.9659V244.354H-11.5328V175H-12.2553ZM360.282 884.402V794.208H307.785V884.402H360.282ZM307.062 884.402V794.208H254.568V884.402H307.062ZM253.846 884.402V794.208H201.347V884.402H253.846ZM200.625 884.402V794.208H148.126V884.402H200.625ZM147.403 884.402V794.208H94.904V884.402H147.403ZM94.1814 884.402V794.208H41.6885V884.402H94.1814ZM40.9659 884.402V794.208H-11.5328V884.402H40.9659ZM40.9659 792.967H-11.5328V702.773H40.9659V792.967ZM94.1814 792.967H41.6885V702.773H94.1814V792.967ZM147.403 792.967H94.904V702.773H147.403V792.967ZM200.625 792.967H148.126V702.773H200.625V792.967ZM253.846 792.967H201.347V702.773H253.846V792.967ZM307.062 792.967H254.568V702.773H307.062V792.967ZM360.282 792.967H307.785V702.773H360.282V792.967ZM360.282 701.532V611.337H307.785V701.532H360.282ZM307.062 701.532V611.337H254.568V701.532H307.062ZM253.846 701.532V611.337H201.347V701.532H253.846ZM200.625 701.532V611.337H148.126V701.532H200.625ZM147.403 701.532V611.337H94.904V701.532H147.403ZM94.1814 701.532V611.337H41.6885V701.532H94.1814ZM40.9659 701.532V611.337H-11.5328V701.532H40.9659ZM40.9659 610.096H-11.5328V519.902H40.9659V610.096ZM94.1814 610.096H41.6885V519.902H94.1814V610.096ZM147.403 610.096H94.904V519.902H147.403V610.096ZM200.625 610.096H148.126V519.902H200.625V610.096ZM253.846 610.096H201.347V519.902H253.846V610.096ZM307.062 610.096H254.568V519.902H307.062V610.096ZM360.282 610.096H307.785V519.902H360.282V610.096ZM360.282 518.661V428.467H307.785V518.661H360.282ZM307.062 518.661V428.467H254.568V518.661H307.062ZM253.846 518.661V428.467H201.347V518.661H253.846ZM200.625 518.661V428.467H148.126V518.661H200.625ZM147.403 518.661V428.467H94.904V518.661H147.403ZM94.1814 518.661V428.467H41.6885V518.661H94.1814ZM40.9659 518.661V428.467H-11.5328V518.661H40.9659ZM40.9659 427.225H-11.5328V337.031H40.9659V427.225ZM94.1814 427.225H41.6885V337.031H94.1814V427.225ZM147.403 427.225H94.904V337.031H147.403V427.225ZM200.625 427.225H148.126V337.031H200.625V427.225ZM253.846 427.225H201.347V337.031H253.846V427.225ZM307.062 427.225H254.568V337.031H307.062V427.225ZM360.282 427.225H307.785V337.031H360.282V427.225ZM360.282 335.789V245.595H307.785V335.789H360.282ZM307.062 335.789V245.595H254.568V335.789H307.062ZM253.846 335.789V245.595H201.347V335.789H253.846ZM200.625 335.789V245.595H148.126V335.789H200.625ZM147.403 335.789V245.595H94.904V335.789H147.403ZM94.1814 335.789V245.595H41.6885V335.789H94.1814ZM40.9659 335.789V245.595H-11.5328V335.789H40.9659Z" fill="url(#paint1_radial_1_20)"/>
<g opacity="0.4" filter="url(#filter0_f_1_20)">
<path d="M390.214 -331.348C330.617 -430.015 265.223 -348.324 244.152 -148.885C223.081 50.5528 254.313 292.215 313.909 390.881C373.506 489.548 438.9 407.857 459.971 208.419C481.041 8.98076 449.81 -232.681 390.214 -331.348Z" fill="url(#paint2_linear_1_20)" fill-opacity="0.23"/>
</g>
<g opacity="0.4" filter="url(#filter1_f_1_20)">
<path d="M154.297 -212.704C197.639 -32.8174 254.279 31.8187 280.805 -68.3355C307.332 -168.49 293.701 -395.508 250.359 -575.395C207.017 -755.282 150.377 -819.918 123.85 -719.764C97.3234 -619.61 110.955 -392.591 154.297 -212.704Z" fill="#8244FF"/>
</g>
</g>
</g>
<defs>
<filter id="filter0_f_1_20" x="43.5752" y="-567.213" width="616.973" height="1193.96" filterUnits="userSpaceOnUse" color-interpolation-filters="sRGB">
<feFlood flood-opacity="0" result="BackgroundImageFix"/>
<feBlend mode="normal" in="SourceGraphic" in2="BackgroundImageFix" result="shape"/>
<feGaussianBlur stdDeviation="97" result="effect1_foregroundBlur_1_20"/>
</filter>
<filter id="filter1_f_1_20" x="-193.695" y="-1070.91" width="792.045" height="1353.72" filterUnits="userSpaceOnUse" color-interpolation-filters="sRGB">
<feFlood flood-opacity="0" result="BackgroundImageFix"/>
<feBlend mode="normal" in="SourceGraphic" in2="BackgroundImageFix" result="shape"/>
<feGaussianBlur stdDeviation="152" result="effect1_foregroundBlur_1_20"/>
</filter>
<radialGradient id="paint0_radial_1_20" cx="0" cy="0" r="1" gradientUnits="userSpaceOnUse" gradientTransform="translate(336.999 126.5) rotate(90) scale(292.345 169.113)">
<stop stop-color="#8244FF" stop-opacity="0.29"/>
<stop offset="1" stop-color="#8244FF" stop-opacity="0"/>
</radialGradient>
<radialGradient id="paint1_radial_1_20" cx="0" cy="0" r="1" gradientUnits="userSpaceOnUse" gradientTransform="translate(176 565) rotate(90) scale(295.758 172.146)">
<stop stop-color="#8244FF" stop-opacity="0.29"/>
<stop offset="1" stop-color="#8244FF" stop-opacity="0"/>
</radialGradient>
<linearGradient id="paint2_linear_1_20" x1="218.229" y1="179.811" x2="537.259" y2="59.9106" gradientUnits="userSpaceOnUse">
<stop stop-color="#F926AE"/>
<stop offset="0.21875" stop-color="#F926AE"/>
<stop offset="1" stop-color="#F926AE" stop-opacity="0"/>
</linearGradient>
<clipPath id="clip0_1_20">
<rect width="498" height="803" fill="white"/>
</clipPath>
</defs>
</svg>
