<svg width="497" height="859" viewBox="0 0 497 859" fill="none" xmlns="http://www.w3.org/2000/svg">
<g clip-path="url(#clip0_1_17)">
<path fill-rule="evenodd" clip-rule="evenodd" d="M98.3028 -135.07V-83.6977L50 -83.6977V-82.7782L98.3028 -82.7782V-15.97H50V-15.0505H98.3028V51.758H50V52.6775H98.3028V119.485H50V120.405H98.3028V187.213H50V188.132H98.3028V254.941H50V255.861H98.3028V322.669H50V323.588H98.3028V390.396H50V391.315H98.3028V442.689H99.2036V391.315H164.654V442.689H165.554V391.315H230.999V442.689H231.9V391.315H297.344V442.689H298.245V391.315H363.698V442.689H364.599V391.315H430.053V442.689H430.954V391.315H496.398V442.689H497.299V391.315H562.744V442.689H563.644V391.315H616V390.396H563.644V323.588H616V322.669H563.644V255.861H616V254.941H563.644V188.132H616V187.213H563.644V120.405H616V119.485H563.644V52.6775H616V51.758H563.644V-15.0505H616V-15.97H563.644V-82.7782H616V-83.6977L563.644 -83.6977V-135.07H562.744V-83.6977H497.299V-135.07H496.398V-83.6977L430.954 -83.6977V-135.07H430.053V-83.6977H364.599V-135.07H363.698V-83.6977L298.245 -83.6977V-135.07H297.344V-83.6977L231.9 -83.6977V-135.07H230.999V-83.6977L165.554 -83.6977V-135.07H164.654V-83.6977H99.2036V-135.07H98.3028ZM562.744 390.396V323.588H497.299V390.396H562.744ZM496.398 390.396V323.588H430.954V390.396H496.398ZM430.053 390.396V323.588H364.599V390.396H430.053ZM363.698 390.396V323.588H298.245V390.396H363.698ZM297.344 390.396V323.588H231.9V390.396H297.344ZM230.999 390.396V323.588H165.554V390.396H230.999ZM164.654 390.396V323.588H99.2036V390.396H164.654ZM164.654 322.669H99.2036V255.861H164.654V322.669ZM230.999 322.669H165.554V255.861H230.999V322.669ZM297.344 322.669H231.9V255.861H297.344V322.669ZM363.698 322.669H298.245V255.861H363.698V322.669ZM430.053 322.669H364.599V255.861H430.053V322.669ZM496.398 322.669H430.954V255.861H496.398V322.669ZM562.744 322.669H497.299V255.861H562.744V322.669ZM562.744 254.941V188.132H497.299V254.941H562.744ZM496.398 254.941V188.132H430.954V254.941H496.398ZM430.053 254.941V188.132H364.599V254.941H430.053ZM363.698 254.941V188.132H298.245V254.941H363.698ZM297.344 254.941V188.132H231.9V254.941H297.344ZM230.999 254.941V188.132H165.554V254.941H230.999ZM164.654 254.941V188.132H99.2036V254.941H164.654ZM164.654 187.213H99.2036V120.405H164.654V187.213ZM230.999 187.213H165.554V120.405H230.999V187.213ZM297.344 187.213H231.9V120.405H297.344V187.213ZM363.698 187.213H298.245V120.405H363.698V187.213ZM430.053 187.213H364.599V120.405H430.053V187.213ZM496.398 187.213H430.954V120.405H496.398V187.213ZM562.744 187.213H497.299V120.405H562.744V187.213ZM562.744 119.485V52.6775H497.299V119.485H562.744ZM496.398 119.485V52.6775H430.954V119.485H496.398ZM430.053 119.485V52.6775H364.599V119.485H430.053ZM363.698 119.485V52.6775H298.245V119.485H363.698ZM297.344 119.485V52.6775H231.9V119.485H297.344ZM230.999 119.485V52.6775H165.554V119.485H230.999ZM164.654 119.485V52.6775H99.2036V119.485H164.654ZM164.654 51.758H99.2036V-15.0505H164.654V51.758ZM230.999 51.758H165.554V-15.0505H230.999V51.758ZM297.344 51.758H231.9V-15.0505H297.344V51.758ZM363.698 51.758H298.245V-15.0505H363.698V51.758ZM430.053 51.758H364.599V-15.0505H430.053V51.758ZM496.398 51.758H430.954V-15.0505H496.398V51.758ZM562.744 51.758H497.299V-15.0505H562.744V51.758ZM562.744 -15.97V-82.7782H497.299V-15.97H562.744ZM496.398 -15.97V-82.7782L430.954 -82.7782V-15.97H496.398ZM430.053 -15.97V-82.7782H364.599V-15.97H430.053ZM363.698 -15.97V-82.7782L298.245 -82.7782V-15.97H363.698ZM297.344 -15.97V-82.7782H231.9V-15.97H297.344ZM230.999 -15.97V-82.7782H165.554V-15.97H230.999ZM164.654 -15.97V-82.7782H99.2036V-15.97H164.654Z" fill="url(#paint0_radial_1_17)"/>
<g opacity="0.4" filter="url(#filter0_f_1_17)">
<path d="M416.477 -237.494C372.186 -317.303 322.115 -236.066 304.641 -56.0472C287.166 123.972 308.905 334.603 353.196 414.411C397.487 494.22 447.557 412.983 465.032 232.965C482.507 52.9458 460.768 -157.686 416.477 -237.494Z" fill="url(#paint1_linear_1_17)" fill-opacity="0.33"/>
</g>
<g opacity="0.4" filter="url(#filter1_f_1_17)">
<path d="M153.987 -244.263C197.242 -48.8689 253.768 21.3391 280.242 -87.4489C306.715 -196.237 293.111 -442.825 249.856 -638.219C206.602 -833.613 150.075 -903.821 123.602 -795.033C97.1283 -686.245 110.732 -439.657 153.987 -244.263Z" fill="#FF44EC"/>
</g>
<path fill-rule="evenodd" clip-rule="evenodd" d="M-104.27 256V306.682H-153V307.589H-104.27V373.5H-153V374.407H-104.27V440.319H-153V441.226H-104.27V507.137H-153V508.044H-104.27V573.954H-153V574.862H-104.27V640.773H-153V641.68H-104.27V707.591H-153V708.498H-104.27V774.409H-153V775.316H-104.27V826H-103.362V775.316H-37.3336V826H-36.4248V775.316H29.596V826H30.5048V775.316H96.5338V826H97.4425V775.316H163.471V826H164.379V775.316H230.408V826H231.316V775.316H297.338V826H298.247V775.316H364.273V826H365.182V775.316H418V774.409H365.182V708.498H418V707.591H365.182V641.68H418V640.773H365.182V574.862H418V573.954H365.182V508.044H418V507.137H365.182V441.226H418V440.319H365.182V374.407H418V373.5H365.182V307.589H418V306.682H365.182V256H364.273V306.682H298.247V256H297.338V306.682H231.316V256H230.408V306.682H164.379V256H163.471V306.682H97.4425V256H96.5338V306.682H30.5048V256H29.596V306.682H-36.4248V256H-37.3336V306.682H-103.362V256H-104.27ZM364.273 774.409V708.498H298.247V774.409H364.273ZM297.338 774.409V708.498H231.316V774.409H297.338ZM230.408 774.409V708.498H164.379V774.409H230.408ZM163.471 774.409V708.498H97.4425V774.409H163.471ZM96.5338 774.409V708.498H30.5048V774.409H96.5338ZM29.596 774.409V708.498H-36.4248V774.409H29.596ZM-37.3336 774.409V708.498H-103.362V774.409H-37.3336ZM-37.3336 707.591H-103.362V641.68H-37.3336V707.591ZM29.596 707.591H-36.4248V641.68H29.596V707.591ZM96.5338 707.591H30.5048V641.68H96.5338V707.591ZM163.471 707.591H97.4425V641.68H163.471V707.591ZM230.408 707.591H164.379V641.68H230.408V707.591ZM297.338 707.591H231.316V641.68H297.338V707.591ZM364.273 707.591H298.247V641.68H364.273V707.591ZM364.273 640.773V574.862H298.247V640.773H364.273ZM297.338 640.773V574.862H231.316V640.773H297.338ZM230.408 640.773V574.862H164.379V640.773H230.408ZM163.471 640.773V574.862H97.4425V640.773H163.471ZM96.5338 640.773V574.862H30.5048V640.773H96.5338ZM29.596 640.773V574.862H-36.4248V640.773H29.596ZM-37.3336 640.773V574.862H-103.362V640.773H-37.3336ZM-37.3336 573.954H-103.362V508.044H-37.3336V573.954ZM29.596 573.954H-36.4248V508.044H29.596V573.954ZM96.5338 573.954H30.5048V508.044H96.5338V573.954ZM163.471 573.954H97.4425V508.044H163.471V573.954ZM230.408 573.954H164.379V508.044H230.408V573.954ZM297.338 573.954H231.316V508.044H297.338V573.954ZM364.273 573.954H298.247V508.044H364.273V573.954ZM364.273 507.137V441.226H298.247V507.137H364.273ZM297.338 507.137V441.226H231.316V507.137H297.338ZM230.408 507.137V441.226H164.379V507.137H230.408ZM163.471 507.137V441.226H97.4425V507.137H163.471ZM96.5338 507.137V441.226H30.5048V507.137H96.5338ZM29.596 507.137V441.226H-36.4248V507.137H29.596ZM-37.3336 507.137V441.226H-103.362V507.137H-37.3336ZM-37.3336 440.319H-103.362V374.407H-37.3336V440.319ZM29.596 440.319H-36.4248V374.407H29.596V440.319ZM96.5338 440.319H30.5048V374.407H96.5338V440.319ZM163.471 440.319H97.4425V374.407H163.471V440.319ZM230.408 440.319H164.379V374.407H230.408V440.319ZM297.338 440.319H231.316V374.407H297.338V440.319ZM364.273 440.319H298.247V374.407H364.273V440.319ZM364.273 373.5V307.589H298.247V373.5H364.273ZM297.338 373.5V307.589H231.316V373.5H297.338ZM230.408 373.5V307.589H164.379V373.5H230.408ZM163.471 373.5V307.589H97.4425V373.5H163.471ZM96.5338 373.5V307.589H30.5048V373.5H96.5338ZM29.596 373.5V307.589H-36.4248V373.5H29.596ZM-37.3336 373.5V307.589H-103.362V373.5H-37.3336Z" fill="url(#paint2_radial_1_17)"/>
</g>
<defs>
<filter id="filter0_f_1_17" x="104.601" y="-462.179" width="560.47" height="1101.28" filterUnits="userSpaceOnUse" color-interpolation-filters="sRGB">
<feFlood flood-opacity="0" result="BackgroundImageFix"/>
<feBlend mode="normal" in="SourceGraphic" in2="BackgroundImageFix" result="shape"/>
<feGaussianBlur stdDeviation="97" result="effect1_foregroundBlur_1_17"/>
</filter>
<filter id="filter1_f_1_17" x="-193.916" y="-1150.25" width="791.675" height="1418.01" filterUnits="userSpaceOnUse" color-interpolation-filters="sRGB">
<feFlood flood-opacity="0" result="BackgroundImageFix"/>
<feBlend mode="normal" in="SourceGraphic" in2="BackgroundImageFix" result="shape"/>
<feGaussianBlur stdDeviation="152" result="effect1_foregroundBlur_1_17"/>
</filter>
<radialGradient id="paint0_radial_1_17" cx="0" cy="0" r="1" gradientUnits="userSpaceOnUse" gradientTransform="translate(332.999 153.81) rotate(90) scale(219.073 214.614)">
<stop stop-color="#FF44F6" stop-opacity="0.29"/>
<stop offset="1" stop-color="#FF44EF" stop-opacity="0"/>
</radialGradient>
<linearGradient id="paint1_linear_1_17" x1="282.497" y1="239.48" x2="545.101" y2="152.976" gradientUnits="userSpaceOnUse">
<stop stop-color="#F926AE"/>
<stop offset="0.21875" stop-color="#F926AE"/>
<stop offset="1" stop-color="#F926AE" stop-opacity="0"/>
</linearGradient>
<radialGradient id="paint2_radial_1_17" cx="0" cy="0" r="1" gradientUnits="userSpaceOnUse" gradientTransform="translate(132.5 541) rotate(90) scale(216.131 216.51)">
<stop stop-color="#FF44E6" stop-opacity="0.29"/>
<stop offset="1" stop-color="#FF44EC" stop-opacity="0"/>
</radialGradient>
<clipPath id="clip0_1_17">
<rect width="497" height="859" fill="white"/>
</clipPath>
</defs>
</svg>
