<svg data-name="Layer 1" xmlns="http://www.w3.org/2000/svg" viewBox="0 0 1200 120" preserveAspectRatio="none">
 <rect width="100%" height="100%" fill="black"/>
  <defs>
    <linearGradient id="light" x1="0" y1="1" x2="1">
      <stop stop-color="#00ff97"></stop>
      <stop offset=".8" stop-color="rgb(21, 21, 21)"></stop>
    </linearGradient>
  </defs>
  <g transform="scale(1, -1) translate(0, -120)">
   <path d="M0,0V46.29c47.79,22.2,103.59,32.17,158,28,70.36-5.37,136.33-33.31,206.8-37.5C438.64,32.43,512.34,53.67,583,72.05c69.27,18,138.3,24.88,209.4,13.08,36.15-6,69.85-17.84,104.45-29.34C989.49,25,1113-14.29,1200,52.47V0Z" opacity="1" fill="#00ff97" class="shape-fill"></path>
    
    <path d="M0,0V46.29C47.79,22.2,103.59,32.17,158,28c70.36-5.37,136.33-33.31,206.8-37.5C438.64,32.43,512.34,53.67,583,72.05c69.27,18,138.3,24.88,209.4,13.08,36.15-6,69.85-17.84,104.45-29.34C989.49,25,1113-14.29,1200,52.47V0Z" opacity="0.25" fill="#00ff97" class="shape-fill"></path>
    <path d="M0,0V5.63C149.93,59,314.09,71.32,475.83,42.57c43-7.64,84.23-20.12,127.61-26.46,59-8.63,112.48,12.24,165.56,35.4C827.93,77.22,886,95.24,951.2,90c86.53-7,172.46-45.71,248.8-84.81V0Z" fill="rgb(21, 21, 21)" class="shape-fill"></path>
  </g>
</svg>
